<svg width="67" height="35" viewBox="0 0 67 35" fill="none" xmlns="http://www.w3.org/2000/svg">
<path d="M28.9019 18H26.1019V0.0399976H28.9019V18ZM8.82188 34.32C7.59521 34.2933 6.51521 34.0667 5.58188 33.64C4.67521 33.24 3.90188 32.7067 3.26188 32.04C2.64854 31.3733 2.18188 30.6133 1.86188 29.76C1.54188 28.9333 1.38188 28.08 1.38188 27.2C1.38188 26.2933 1.52854 25.4133 1.82188 24.56C2.11521 23.7067 2.55521 22.96 3.14188 22.32C3.75521 21.6533 4.52854 21.12 5.46188 20.72C6.42188 20.2933 7.56854 20.0667 8.90188 20.04C10.1285 20.0133 11.2485 20 12.2619 20C13.3019 20 14.3019 20 15.2619 20C16.2485 20 17.2485 20 18.2619 20C19.3019 20 20.4352 20.0133 21.6619 20.04C22.9685 20.04 24.1019 20.2533 25.0619 20.68C26.0219 21.08 26.7952 21.6133 27.3819 22.28C27.9952 22.9467 28.4485 23.7067 28.7419 24.56C29.0352 25.4133 29.1819 26.2933 29.1819 27.2C29.1819 28.08 29.0219 28.9333 28.7019 29.76C28.3819 30.6133 27.9019 31.3733 27.2619 32.04C26.6485 32.7067 25.8752 33.24 24.9419 33.64C24.0085 34.0667 22.9285 34.2933 21.7019 34.32C20.4752 34.3467 19.3419 34.36 18.3019 34.36C17.2885 34.3867 16.2752 34.4 15.2619 34.4C14.2752 34.4 13.2619 34.3867 12.2219 34.36C11.1819 34.36 10.0485 34.3467 8.82188 34.32ZM9.14188 31.68C11.0352 31.7067 13.0752 31.72 15.2619 31.72C17.4752 31.72 19.5285 31.7067 21.4219 31.68C22.3552 31.6533 23.1285 31.5067 23.7419 31.24C24.3819 30.9733 24.8885 30.6267 25.2619 30.2C25.6619 29.8 25.9419 29.3333 26.1019 28.8C26.2885 28.2933 26.3819 27.7733 26.3819 27.24C26.3819 26.68 26.3019 26.1333 26.1419 25.6C26.0085 25.0667 25.7552 24.5867 25.3819 24.16C25.0085 23.7333 24.4885 23.3867 23.8219 23.12C23.1819 22.8533 22.3685 22.72 21.3819 22.72C19.4885 22.6933 17.4485 22.68 15.2619 22.68C13.1019 22.68 11.0752 22.6933 9.18187 22.72C8.16854 22.72 7.34188 22.8533 6.70188 23.12C6.06188 23.3867 5.55521 23.7333 5.18188 24.16C4.80854 24.5867 4.54188 25.0667 4.38188 25.6C4.24854 26.1333 4.18188 26.68 4.18188 27.24C4.18188 27.7733 4.26188 28.2933 4.42188 28.8C4.60854 29.3333 4.88854 29.8 5.26188 30.2C5.66188 30.6267 6.16854 30.9733 6.78188 31.24C7.42188 31.5067 8.20854 31.6533 9.14188 31.68ZM19.4219 16.44H0.581875V0.479999H18.6219V3.12H3.38188V13.8H19.4219V16.44ZM37.5175 24.88H60.6775V21.32H37.5175V18.68H49.0775V14.84H34.3575V12.2H66.6775V14.84H51.8775V18.68H63.4775V27.52H40.3175V31.68H64.0775V34.32H37.5175V24.88ZM59.7175 10.12L60.4375 2.84H36.7575V0.199998H63.5975L62.6775 10.12H59.7175Z" fill="#75A2E6"/>
</svg>
